<?xml version="1.0" encoding="UTF-8" standalone="no"?>
<!-- Created with Inkscape (http://www.inkscape.org/) -->

<svg
   xmlns:dc="http://purl.org/dc/elements/1.1/"
   xmlns:cc="http://creativecommons.org/ns#"
   xmlns:rdf="http://www.w3.org/1999/02/22-rdf-syntax-ns#"
   xmlns:svg="http://www.w3.org/2000/svg"
   xmlns="http://www.w3.org/2000/svg"
   xmlns:sodipodi="http://sodipodi.sourceforge.net/DTD/sodipodi-0.dtd"
   xmlns:inkscape="http://www.inkscape.org/namespaces/inkscape"
   id="svg4187"
   version="1.1"
   inkscape:version="0.91 r13725"
   width="351.25"
   height="93.75"
   viewBox="0 0 351.25 93.75"
   sodipodi:docname="logo3.svg">
  <metadata
     id="metadata4193">
    <rdf:RDF>
      <cc:Work
         rdf:about="">
        <dc:format>image/svg+xml</dc:format>
        <dc:type
           rdf:resource="http://purl.org/dc/dcmitype/StillImage" />
        <dc:title />
      </cc:Work>
    </rdf:RDF>
  </metadata>
  <defs
     id="defs4191">
    <clipPath
       clipPathUnits="userSpaceOnUse"
       id="clipPath5441">
      <path
         d="m 3723,10548.5 0,125.7 35.01,0 0,-125.7 -35.01,0 z m 146.82,0 -54.11,69 0,-69 -34.62,0 0,125.7 32.63,0 51.95,-66.4 0,66.4 34.62,0 0,-125.7 -30.47,0 z m 106.57,78.3 c 28.87,-6.3 46.9,-15.6 46.9,-39.2 l 0,-0.3 c 0,-25.7 -20.39,-41 -51.03,-41 -22.38,0 -43.47,7 -59.16,20.9 l 19.46,23.1 c 12.64,-9.8 26.34,-15 40.94,-15 9.57,0 14.63,3.2 14.63,8.6 l 0,0.4 c 0,5.3 -4.16,8 -21.48,12.1 -26.87,6.1 -47.6,13.7 -47.6,39.4 l 0,0.3 c 0,23.4 18.56,40.3 48.86,40.3 21.48,0 38.25,-5.8 51.95,-16.7 l -17.5,-24.6 c -11.54,8.2 -24.17,12.3 -35.35,12.3 -8.47,0 -12.61,-3.4 -12.61,-8 l 0,-0.4 c 0,-5.7 4.33,-8.2 21.99,-12.2 z m 126.08,16.9 0,-95.2 -34.99,0 0,95.2 -37.71,0 0,30.5 110.58,0 0,-30.5 -37.88,0 z m 130.57,-95.2 -9.01,22.6 -48.89,0 -9.01,-22.6 -36.62,0 53.58,126.6 33.72,0 53.74,-126.6 -37.51,0 z m -33.38,85.3 -14.24,-35.6 28.31,0 -14.07,35.6 z m 171.88,-85.3 -54.11,69 0,-69 -34.63,0 0,125.7 32.66,0 51.95,-66.4 0,66.4 34.62,0 0,-125.7 -30.49,0 z m 118.66,95.2 0,-95.2 -34.99,0 0,95.2 -37.68,0 0,30.5 110.55,0 0,-30.5 -37.88,0 z"
         id="path5443"
         inkscape:connector-curvature="0" />
    </clipPath>
    <clipPath
       clipPathUnits="userSpaceOnUse"
       id="clipPath5453">
      <path
         d="m 3099.95,10225.2 0,86.6 196.59,0 0,-191.4 c -45.34,-37.8 -107.81,-66.5 -186.19,-66.5 -133.52,0 -232.72,91.5 -232.72,220.7 l 0,1.3 c 0,124.3 97.99,221.9 230.26,221.9 75.35,0 128.61,-22.5 173.95,-61.6 l -69.84,-84.1 c -30.61,25.6 -60.61,40.2 -103.5,40.2 -61.84,0 -109.61,-51.2 -109.61,-116.4 l 0,-1.3 c 0,-69.5 48.38,-118.9 116.36,-118.9 29.41,0 51.44,6.1 68.59,17.7 l 0,51.8 -83.89,0 z m 549.91,-162.8 -30.61,76.9 -165.97,0 -30.64,-76.9 -124.31,0 181.89,429.9 114.51,0 182.52,-429.9 -127.39,0 z m -113.29,289.7 -48.4,-120.8 96.17,0 -47.77,120.8 z m 589.1,-289.7 0,245.2 -109.62,-167.1 -2.46,0 -109,166.4 0,-244.5 -116.36,0 0,426.9 125.55,0 102.27,-165.3 102.29,165.3 125.54,0 0,-426.9 -118.21,0 z m 166.53,0 0,426.9 118.82,0 0,-426.9 -118.82,0 z m 467.89,0 -183.73,234.2 0,-234.2 -117.57,0 0,426.9 110.84,0 176.37,-225.6 0,225.6 117.6,0 0,-426.9 -103.51,0 z m 357,162.8 0,86.6 196.59,0 0,-191.4 c -45.32,-37.8 -107.78,-66.5 -186.16,-66.5 -133.52,0 -232.75,91.5 -232.75,220.7 l 0,1.3 c 0,124.3 97.99,221.9 230.29,221.9 75.32,0 128.6,-22.5 173.92,-61.6 l -69.81,-84.1 c -30.63,25.6 -60.64,40.2 -103.5,40.2 -61.86,0 -109.63,-51.2 -109.63,-116.4 l 0,-1.3 c 0,-69.5 48.37,-118.9 116.36,-118.9 29.4,0 51.44,6.1 68.59,17.7 l 0,51.8 -83.9,0 z"
         id="path5455"
         inkscape:connector-curvature="0" />
    </clipPath>
    <clipPath
       clipPathUnits="userSpaceOnUse"
       id="clipPath6997">
      <path
         d="m 3099.95,10225.2 0,86.6 196.59,0 0,-191.4 c -45.34,-37.8 -107.81,-66.5 -186.19,-66.5 -133.52,0 -232.72,91.5 -232.72,220.7 l 0,1.3 c 0,124.3 97.99,221.9 230.26,221.9 75.35,0 128.61,-22.5 173.95,-61.6 l -69.84,-84.1 c -30.61,25.6 -60.61,40.2 -103.5,40.2 -61.84,0 -109.61,-51.2 -109.61,-116.4 l 0,-1.3 c 0,-69.5 48.38,-118.9 116.36,-118.9 29.41,0 51.44,6.1 68.59,17.7 l 0,51.8 -83.89,0 z m 549.91,-162.8 -30.61,76.9 -165.97,0 -30.64,-76.9 -124.31,0 181.89,429.9 114.51,0 182.52,-429.9 -127.39,0 z m -113.29,289.7 -48.4,-120.8 96.17,0 -47.77,120.8 z m 589.1,-289.7 0,245.2 -109.62,-167.1 -2.46,0 -109,166.4 0,-244.5 -116.36,0 0,426.9 125.55,0 102.27,-165.3 102.29,165.3 125.54,0 0,-426.9 -118.21,0 z m 166.53,0 0,426.9 118.82,0 0,-426.9 -118.82,0 z m 467.89,0 -183.73,234.2 0,-234.2 -117.57,0 0,426.9 110.84,0 176.37,-225.6 0,225.6 117.6,0 0,-426.9 -103.51,0 z m 357,162.8 0,86.6 196.59,0 0,-191.4 c -45.32,-37.8 -107.78,-66.5 -186.16,-66.5 -133.52,0 -232.75,91.5 -232.75,220.7 l 0,1.3 c 0,124.3 97.99,221.9 230.29,221.9 75.32,0 128.6,-22.5 173.92,-61.6 l -69.81,-84.1 c -30.63,25.6 -60.64,40.2 -103.5,40.2 -61.86,0 -109.63,-51.2 -109.63,-116.4 l 0,-1.3 c 0,-69.5 48.37,-118.9 116.36,-118.9 29.4,0 51.44,6.1 68.59,17.7 l 0,51.8 -83.9,0 z"
         id="path6999"
         inkscape:connector-curvature="0" />
    </clipPath>
    <clipPath
       clipPathUnits="userSpaceOnUse"
       id="clipPath5453-3">
      <path
         d="m 3099.95,10225.2 0,86.6 196.59,0 0,-191.4 c -45.34,-37.8 -107.81,-66.5 -186.19,-66.5 -133.52,0 -232.72,91.5 -232.72,220.7 l 0,1.3 c 0,124.3 97.99,221.9 230.26,221.9 75.35,0 128.61,-22.5 173.95,-61.6 l -69.84,-84.1 c -30.61,25.6 -60.61,40.2 -103.5,40.2 -61.84,0 -109.61,-51.2 -109.61,-116.4 l 0,-1.3 c 0,-69.5 48.38,-118.9 116.36,-118.9 29.41,0 51.44,6.1 68.59,17.7 l 0,51.8 -83.89,0 z m 549.91,-162.8 -30.61,76.9 -165.97,0 -30.64,-76.9 -124.31,0 181.89,429.9 114.51,0 182.52,-429.9 -127.39,0 z m -113.29,289.7 -48.4,-120.8 96.17,0 -47.77,120.8 z m 589.1,-289.7 0,245.2 -109.62,-167.1 -2.46,0 -109,166.4 0,-244.5 -116.36,0 0,426.9 125.55,0 102.27,-165.3 102.29,165.3 125.54,0 0,-426.9 -118.21,0 z m 166.53,0 0,426.9 118.82,0 0,-426.9 -118.82,0 z m 467.89,0 -183.73,234.2 0,-234.2 -117.57,0 0,426.9 110.84,0 176.37,-225.6 0,225.6 117.6,0 0,-426.9 -103.51,0 z m 357,162.8 0,86.6 196.59,0 0,-191.4 c -45.32,-37.8 -107.78,-66.5 -186.16,-66.5 -133.52,0 -232.75,91.5 -232.75,220.7 l 0,1.3 c 0,124.3 97.99,221.9 230.29,221.9 75.32,0 128.6,-22.5 173.92,-61.6 l -69.81,-84.1 c -30.63,25.6 -60.64,40.2 -103.5,40.2 -61.86,0 -109.63,-51.2 -109.63,-116.4 l 0,-1.3 c 0,-69.5 48.37,-118.9 116.36,-118.9 29.4,0 51.44,6.1 68.59,17.7 l 0,51.8 -83.9,0 z"
         id="path5455-6"
         inkscape:connector-curvature="0" />
    </clipPath>
    <clipPath
       clipPathUnits="userSpaceOnUse"
       id="clipPath5441-7">
      <path
         d="m 3723,10548.5 0,125.7 35.01,0 0,-125.7 -35.01,0 z m 146.82,0 -54.11,69 0,-69 -34.62,0 0,125.7 32.63,0 51.95,-66.4 0,66.4 34.62,0 0,-125.7 -30.47,0 z m 106.57,78.3 c 28.87,-6.3 46.9,-15.6 46.9,-39.2 l 0,-0.3 c 0,-25.7 -20.39,-41 -51.03,-41 -22.38,0 -43.47,7 -59.16,20.9 l 19.46,23.1 c 12.64,-9.8 26.34,-15 40.94,-15 9.57,0 14.63,3.2 14.63,8.6 l 0,0.4 c 0,5.3 -4.16,8 -21.48,12.1 -26.87,6.1 -47.6,13.7 -47.6,39.4 l 0,0.3 c 0,23.4 18.56,40.3 48.86,40.3 21.48,0 38.25,-5.8 51.95,-16.7 l -17.5,-24.6 c -11.54,8.2 -24.17,12.3 -35.35,12.3 -8.47,0 -12.61,-3.4 -12.61,-8 l 0,-0.4 c 0,-5.7 4.33,-8.2 21.99,-12.2 z m 126.08,16.9 0,-95.2 -34.99,0 0,95.2 -37.71,0 0,30.5 110.58,0 0,-30.5 -37.88,0 z m 130.57,-95.2 -9.01,22.6 -48.89,0 -9.01,-22.6 -36.62,0 53.58,126.6 33.72,0 53.74,-126.6 -37.51,0 z m -33.38,85.3 -14.24,-35.6 28.31,0 -14.07,35.6 z m 171.88,-85.3 -54.11,69 0,-69 -34.63,0 0,125.7 32.66,0 51.95,-66.4 0,66.4 34.62,0 0,-125.7 -30.49,0 z m 118.66,95.2 0,-95.2 -34.99,0 0,95.2 -37.68,0 0,30.5 110.55,0 0,-30.5 -37.88,0 z"
         id="path5443-5"
         inkscape:connector-curvature="0" />
    </clipPath>
    <clipPath
       clipPathUnits="userSpaceOnUse"
       id="clipPath5453-36">
      <path
         d="m 3099.95,10225.2 0,86.6 196.59,0 0,-191.4 c -45.34,-37.8 -107.81,-66.5 -186.19,-66.5 -133.52,0 -232.72,91.5 -232.72,220.7 l 0,1.3 c 0,124.3 97.99,221.9 230.26,221.9 75.35,0 128.61,-22.5 173.95,-61.6 l -69.84,-84.1 c -30.61,25.6 -60.61,40.2 -103.5,40.2 -61.84,0 -109.61,-51.2 -109.61,-116.4 l 0,-1.3 c 0,-69.5 48.38,-118.9 116.36,-118.9 29.41,0 51.44,6.1 68.59,17.7 l 0,51.8 -83.89,0 z m 549.91,-162.8 -30.61,76.9 -165.97,0 -30.64,-76.9 -124.31,0 181.89,429.9 114.51,0 182.52,-429.9 -127.39,0 z m -113.29,289.7 -48.4,-120.8 96.17,0 -47.77,120.8 z m 589.1,-289.7 0,245.2 -109.62,-167.1 -2.46,0 -109,166.4 0,-244.5 -116.36,0 0,426.9 125.55,0 102.27,-165.3 102.29,165.3 125.54,0 0,-426.9 -118.21,0 z m 166.53,0 0,426.9 118.82,0 0,-426.9 -118.82,0 z m 467.89,0 -183.73,234.2 0,-234.2 -117.57,0 0,426.9 110.84,0 176.37,-225.6 0,225.6 117.6,0 0,-426.9 -103.51,0 z m 357,162.8 0,86.6 196.59,0 0,-191.4 c -45.32,-37.8 -107.78,-66.5 -186.16,-66.5 -133.52,0 -232.75,91.5 -232.75,220.7 l 0,1.3 c 0,124.3 97.99,221.9 230.29,221.9 75.32,0 128.6,-22.5 173.92,-61.6 l -69.81,-84.1 c -30.63,25.6 -60.64,40.2 -103.5,40.2 -61.86,0 -109.63,-51.2 -109.63,-116.4 l 0,-1.3 c 0,-69.5 48.37,-118.9 116.36,-118.9 29.4,0 51.44,6.1 68.59,17.7 l 0,51.8 -83.9,0 z"
         id="path5455-7"
         inkscape:connector-curvature="0" />
    </clipPath>
  </defs>
  <sodipodi:namedview
     pagecolor="#ffffff"
     bordercolor="#666666"
     borderopacity="1"
     objecttolerance="10"
     gridtolerance="10"
     guidetolerance="10"
     inkscape:pageopacity="0"
     inkscape:pageshadow="2"
     inkscape:window-width="2044"
     inkscape:window-height="1084"
     id="namedview4189"
     showgrid="false"
     inkscape:zoom="2.4237909"
     inkscape:cx="117.90148"
     inkscape:cy="32.554159"
     inkscape:window-x="377"
     inkscape:window-y="216"
     inkscape:window-maximized="0"
     inkscape:current-layer="svg4187"
     showborder="true"
     inkscape:showpageshadow="false" />
  <g
     style="font-style:normal;font-weight:normal;font-size:25.89674568px;line-height:125%;font-family:sans-serif;letter-spacing:0px;word-spacing:0px;fill:#ffffff;fill-opacity:1;stroke:none;stroke-width:1px;stroke-linecap:butt;stroke-linejoin:miter;stroke-opacity:1"
     id="text4151">
    <path
       d="m 122.64923,18.715118 5.02397,0 0,-18.12772157 -5.02397,0 0,18.12772157 z"
       style="font-style:normal;font-variant:normal;font-weight:normal;font-stretch:normal;font-family:Gotham;-inkscape-font-specification:Gotham;fill:#ffffff;fill-opacity:1"
       id="path4162" />
    <path
       d="m 130.96653,18.715118 4.97218,0 0,-9.9443499 7.76902,9.9443499 4.37655,0 0,-18.12772157 -4.97217,0 0,9.58179557 -7.45826,-9.58179557 -4.68732,0 0,18.12772157 z"
       style="font-style:normal;font-variant:normal;font-weight:normal;font-stretch:normal;font-family:Gotham;-inkscape-font-specification:Gotham;fill:#ffffff;fill-opacity:1"
       id="path4164" />
    <path
       d="m 158.42113,19.025879 c 4.40245,0 7.32878,-2.201223 7.32878,-5.904458 l 0,-0.05179 c 0,-3.3924738 -2.58967,-4.7391046 -6.73315,-5.6454907 -2.53788,-0.5697284 -3.15941,-0.9322829 -3.15941,-1.7609787 l 0,-0.051793 c 0,-0.6733154 0.59563,-1.1653536 1.81278,-1.1653536 1.60559,0 3.41837,0.5956252 5.07576,1.7868755 l 2.51198,-3.5478542 c -1.96815,-1.5797015 -4.37655,-2.40839732 -7.45826,-2.40839732 -4.35065,0 -7.01802,2.43429412 -7.01802,5.80087102 l 0,0.051793 c 0,3.7032346 2.97813,4.790898 6.83674,5.671387 2.48609,0.595625 3.08171,0.984077 3.08171,1.760979 l 0,0.05179 c 0,0.776902 -0.7251,1.243043 -2.09763,1.243043 -2.09764,0 -4.06579,-0.751005 -5.87856,-2.175326 l -2.79685,3.34068 c 2.25302,1.994049 5.28293,3.004022 8.49413,3.004022 z"
       style="font-style:normal;font-variant:normal;font-weight:normal;font-stretch:normal;font-family:Gotham;-inkscape-font-specification:Gotham;fill:#ffffff;fill-opacity:1"
       id="path4166" />
    <path
       d="m 172.11566,18.715118 5.02397,0 0,-13.7252748 5.43831,0 0,-4.40244677 -15.8747,0 0,4.40244677 5.41242,0 0,13.7252748 z"
       style="font-style:normal;font-variant:normal;font-weight:normal;font-stretch:normal;font-family:Gotham;-inkscape-font-specification:Gotham;fill:#ffffff;fill-opacity:1"
       id="path4168" />
    <path
       d="m 181.03223,18.715118 5.25704,0 1.29484,-3.26299 7.01801,0 1.29484,3.26299 5.38652,0 -7.71723,-18.2572053 -4.84269,0 -7.69133,18.2572053 z m 8.02799,-7.173398 2.04584,-5.1275558 2.01995,5.1275558 -4.06579,0 z"
       style="font-style:normal;font-variant:normal;font-weight:normal;font-stretch:normal;font-family:Gotham;-inkscape-font-specification:Gotham;fill:#ffffff;fill-opacity:1"
       id="path4170" />
    <path
       d="m 203.04244,18.715118 4.97218,0 0,-9.9443499 7.76902,9.9443499 4.37655,0 0,-18.12772157 -4.97217,0 0,9.58179557 -7.45827,-9.58179557 -4.68731,0 0,18.12772157 z"
       style="font-style:normal;font-variant:normal;font-weight:normal;font-stretch:normal;font-family:Gotham;-inkscape-font-specification:Gotham;fill:#ffffff;fill-opacity:1"
       id="path4172" />
    <path
       d="m 227.80378,18.715118 5.02397,0 0,-13.7252748 5.43831,0 0,-4.40244677 -15.8747,0 0,4.40244677 5.41242,0 0,13.7252748 z"
       style="font-style:normal;font-variant:normal;font-weight:normal;font-stretch:normal;font-family:Gotham;-inkscape-font-specification:Gotham;fill:#ffffff;fill-opacity:1"
       id="path4174" />
  </g>
  <g
     style="font-style:normal;font-weight:normal;font-size:88.15394592px;line-height:125%;font-family:sans-serif;letter-spacing:-4.25999737px;word-spacing:0px;fill:#ff5400;fill-opacity:1;stroke:none;stroke-width:1px;stroke-linecap:butt;stroke-linejoin:miter;stroke-opacity:1"
     id="text4155">
    <path
       d="m 35.058506,89.642221 c 11.283705,0 20.275408,-4.143235 26.7988,-9.60878 l 0,-27.680339 -28.297417,0 0,12.51786 12.077091,0 0,7.493086 c -2.468311,1.674925 -5.641853,2.556464 -9.873242,2.556464 -9.785088,0 -16.74925,-7.14047 -16.74925,-17.190019 l 0,-0.176308 c 0,-9.432472 6.876008,-16.837404 15.779557,-16.837404 6.170776,0 10.490319,2.115695 14.898016,5.81816 l 10.04955,-12.165244 c -6.523392,-5.641853 -14.192785,-8.903549 -25.03572,-8.903549 -19.041253,0 -33.145884,14.104632 -33.145884,32.088037 l 0,0.176308 c 0,18.688636 14.280939,31.911728 33.498499,31.911728 z"
       style="font-style:normal;font-variant:normal;font-weight:normal;font-stretch:normal;font-family:Gotham;-inkscape-font-specification:Gotham;letter-spacing:-4.53000021px;fill:#ff5400;fill-opacity:1"
       id="path4149" />
    <path
       d="m 62.046301,88.408066 17.895251,0 4.407697,-11.107397 23.889721,0 4.4077,11.107397 18.33602,0 -26.26988,-62.148532 -16.484787,0 -26.181722,62.148532 z m 27.327723,-24.418643 6.964162,-17.454482 6.876004,17.454482 -13.840166,0 z"
       style="font-style:normal;font-variant:normal;font-weight:normal;font-stretch:normal;font-family:Gotham;-inkscape-font-specification:Gotham;letter-spacing:-4.53000021px;fill:#ff5400;fill-opacity:1"
       id="path4151" />
    <path
       d="m 132.44027,88.408066 16.74925,0 0,-35.349733 15.6914,24.066028 0.35262,0 15.77955,-24.154181 0,35.437886 17.01372,0 0,-61.707762 -18.07156,0 -14.72171,23.889719 -14.72171,-23.889719 -18.07156,0 0,61.707762 z"
       style="font-style:normal;font-variant:normal;font-weight:normal;font-stretch:normal;font-family:Gotham;-inkscape-font-specification:Gotham;letter-spacing:-4.53000021px;fill:#ff5400;fill-opacity:1"
       id="path4153" />
    <path
       d="m 204.79704,88.408066 17.10187,0 0,-61.707762 -17.10187,0 0,61.707762 z"
       style="font-style:normal;font-variant:normal;font-weight:normal;font-stretch:normal;font-family:Gotham;-inkscape-font-specification:Gotham;letter-spacing:-4.53000021px;fill:#ff5400;fill-opacity:1"
       id="path4155" />
    <path
       d="m 228.5796,88.408066 16.92556,0 0,-33.851115 26.44618,33.851115 14.89802,0 0,-61.707762 -16.92556,0 0,32.61696 -25.38834,-32.61696 -15.95586,0 0,61.707762 z"
       style="font-style:normal;font-variant:normal;font-weight:normal;font-stretch:normal;font-family:Gotham;-inkscape-font-specification:Gotham;letter-spacing:-4.53000021px;fill:#ff5400;fill-opacity:1"
       id="path4157" />
    <path
       d="m 324.73517,89.642221 c 11.28371,0 20.27541,-4.143235 26.7988,-9.60878 l 0,-27.680339 -28.29741,0 0,12.51786 12.07709,0 0,7.493086 c -2.46831,1.674925 -5.64186,2.556464 -9.87325,2.556464 -9.78508,0 -16.74925,-7.14047 -16.74925,-17.190019 l 0,-0.176308 c 0,-9.432472 6.87601,-16.837404 15.77956,-16.837404 6.17078,0 10.49032,2.115695 14.89802,5.81816 l 10.04955,-12.165244 c -6.52339,-5.641853 -14.19279,-8.903549 -25.03572,-8.903549 -19.04126,0 -33.14589,14.104632 -33.14589,32.088037 l 0,0.176308 c 0,18.688636 14.28094,31.911728 33.4985,31.911728 z"
       style="font-style:normal;font-variant:normal;font-weight:normal;font-stretch:normal;font-family:Gotham;-inkscape-font-specification:Gotham;letter-spacing:-4.53000021px;fill:#ff5400;fill-opacity:1"
       id="path4159" />
  </g>
</svg>
